HIERARCHY
ROOT Hips
{
  OFFSET -312.851 91.0161 1185.42
  CHANNELS 6 Xposition Yposition Zposition Zrotation Xrotation Yrotation
  JOINT Spine
  {
    OFFSET 0 8 0
    CHANNELS 6 Xposition Yposition Zposition Zrotation Xrotation Yrotation
    JOINT Spine1
    {
      OFFSET 0 8 0
      CHANNELS 6 Xposition Yposition Zposition Zrotation Xrotation Yrotation
      JOINT Spine2
      {
        OFFSET 0 8 0
        CHANNELS 6 Xposition Yposition Zposition Zrotation Xrotation Yrotation
        JOINT Spine3
        {
          OFFSET 0 8 0
          CHANNELS 6 Xposition Yposition Zposition Zrotation Xrotation Yrotation
          JOINT Neck
          {
            OFFSET 0 17 0
            CHANNELS 6 Xposition Yposition Zposition Zrotation Xrotation Yrotation
            JOINT Head
            {
              OFFSET 0 10.8 0
              CHANNELS 6 Xposition Yposition Zposition Zrotation Xrotation Yrotation
              End Site
              {
                OFFSET 0 20.25 0
              }
            }
          }
          JOINT LeftShoulder
          {
            OFFSET 5 17 0
            CHANNELS 6 Xposition Yposition Zposition Zrotation Xrotation Yrotation
            JOINT LeftShoulder2
            {
              OFFSET 6.45 0 0
              CHANNELS 6 Xposition Yposition Zposition Zrotation Xrotation Yrotation
              JOINT LeftArm
              {
                OFFSET 6.45 0 0
                CHANNELS 6 Xposition Yposition Zposition Zrotation Xrotation Yrotation
                JOINT LeftForeArm
                {
                  OFFSET 0 -32.4 -2
                  CHANNELS 6 Xposition Yposition Zposition Zrotation Xrotation Yrotation
                  JOINT LeftHand
                  {
                    OFFSET 0 -25.65 2
                    CHANNELS 6 Xposition Yposition Zposition Zrotation Xrotation Yrotation
                    JOINT LeftHandThumb1
                    {
                      OFFSET -0.5 -1.5 2.65
                      CHANNELS 6 Xposition Yposition Zposition Zrotation Xrotation Yrotation
                      JOINT LeftHandThumb2
                      {
                        OFFSET 0 -3.8 3.7
                        CHANNELS 6 Xposition Yposition Zposition Zrotation Xrotation Yrotation
                        JOINT LeftHandThumb3
                        {
                          OFFSET 0 -3 2.7
                          CHANNELS 6 Xposition Yposition Zposition Zrotation Xrotation Yrotation
                          End Site
                          {
                            OFFSET 0 -2.3 1.8
                          }
                        }
                      }
                    }
                    JOINT LeftHandIndex
                    {
                      OFFSET 0 -1.9 1.6
                      CHANNELS 6 Xposition Yposition Zposition Zrotation Xrotation Yrotation
                      JOINT LeftHandIndex1
                      {
                        OFFSET 0 -8.3 1.9
                        CHANNELS 6 Xposition Yposition Zposition Zrotation Xrotation Yrotation
                        JOINT LeftHandIndex2
                        {
                          OFFSET 0 -4.5 0
                          CHANNELS 6 Xposition Yposition Zposition Zrotation Xrotation Yrotation
                          JOINT LeftHandIndex3
                          {
                            OFFSET 0 -3.4 0
                            CHANNELS 6 Xposition Yposition Zposition Zrotation Xrotation Yrotation
                            End Site
                            {
                              OFFSET 0 -2.6 0
                            }
                          }
                        }
                      }
                    }
                    JOINT LeftHandMiddle
                    {
                      OFFSET -0.25 -2.2 0.4
                      CHANNELS 6 Xposition Yposition Zposition Zrotation Xrotation Yrotation
                      JOINT LeftHandMiddle1
                      {
                        OFFSET 0 -8.3 1
                        CHANNELS 6 Xposition Yposition Zposition Zrotation Xrotation Yrotation
                        JOINT LeftHandMiddle2
                        {
                          OFFSET 0 -4.65 0
                          CHANNELS 6 Xposition Yposition Zposition Zrotation Xrotation Yrotation
                          JOINT LeftHandMiddle3
                          {
                            OFFSET 0 -3.3 0
                            CHANNELS 6 Xposition Yposition Zposition Zrotation Xrotation Yrotation
                            End Site
                            {
                              OFFSET 0 -2.7 0
                            }
                          }
                        }
                      }
                    }
                    JOINT LeftHandRing
                    {
                      OFFSET -0.5 -2.15 -0.8
                      CHANNELS 6 Xposition Yposition Zposition Zrotation Xrotation Yrotation
                      JOINT LeftHandRing1
                      {
                        OFFSET 0 -7.75 -0.2
                        CHANNELS 6 Xposition Yposition Zposition Zrotation Xrotation Yrotation
                        JOINT LeftHandRing2
                        {
                          OFFSET 0 -3.8 0
                          CHANNELS 6 Xposition Yposition Zposition Zrotation Xrotation Yrotation
                          JOINT LeftHandRing3
                          {
                            OFFSET 0 -3.4 0
                            CHANNELS 6 Xposition Yposition Zposition Zrotation Xrotation Yrotation
                            End Site
                            {
                              OFFSET 0 -2.6 0
                            }
                          }
                        }
                      }
                    }
                    JOINT LeftHandPinky
                    {
                      OFFSET -0.75 -1.75 -1.85
                      CHANNELS 6 Xposition Yposition Zposition Zrotation Xrotation Yrotation
                      JOINT LeftHandPinky1
                      {
                        OFFSET 0 -7.15 -1
                        CHANNELS 6 Xposition Yposition Zposition Zrotation Xrotation Yrotation
                        JOINT LeftHandPinky2
                        {
                          OFFSET 0 -3 0
                          CHANNELS 6 Xposition Yposition Zposition Zrotation Xrotation Yrotation
                          JOINT LeftHandPinky3
                          {
                            OFFSET 0 -2.35 0
                            CHANNELS 6 Xposition Yposition Zposition Zrotation Xrotation Yrotation
                            End Site
                            {
                              OFFSET 0 -2.1 0
                            }
                          }
                        }
                      }
                    }
                  }
                }
              }
            }
          }
          JOINT RightShoulder
          {
            OFFSET -5 17 0
            CHANNELS 6 Xposition Yposition Zposition Zrotation Xrotation Yrotation
            JOINT RightShoulder2
            {
              OFFSET -6.45 0 0
              CHANNELS 6 Xposition Yposition Zposition Zrotation Xrotation Yrotation
              JOINT RightArm
              {
                OFFSET -6.45 0 0
                CHANNELS 6 Xposition Yposition Zposition Zrotation Xrotation Yrotation
                JOINT RightForeArm
                {
                  OFFSET 0 -32.4 -2
                  CHANNELS 6 Xposition Yposition Zposition Zrotation Xrotation Yrotation
                  JOINT RightHand
                  {
                    OFFSET 0 -25.65 2
                    CHANNELS 6 Xposition Yposition Zposition Zrotation Xrotation Yrotation
                    JOINT RightHandThumb1
                    {
                      OFFSET 0.5 -1.5 2.65
                      CHANNELS 6 Xposition Yposition Zposition Zrotation Xrotation Yrotation
                      JOINT RightHandThumb2
                      {
                        OFFSET 0 -3.8 3.7
                        CHANNELS 6 Xposition Yposition Zposition Zrotation Xrotation Yrotation
                        JOINT RightHandThumb3
                        {
                          OFFSET 0 -3 2.7
                          CHANNELS 6 Xposition Yposition Zposition Zrotation Xrotation Yrotation
                          End Site
                          {
                            OFFSET 0 -2.3 1.8
                          }
                        }
                      }
                    }
                    JOINT RightHandIndex
                    {
                      OFFSET 0 -1.9 1.6
                      CHANNELS 6 Xposition Yposition Zposition Zrotation Xrotation Yrotation
                      JOINT RightHandIndex1
                      {
                        OFFSET 0 -8.3 1.9
                        CHANNELS 6 Xposition Yposition Zposition Zrotation Xrotation Yrotation
                        JOINT RightHandIndex2
                        {
                          OFFSET 0 -4.5 0
                          CHANNELS 6 Xposition Yposition Zposition Zrotation Xrotation Yrotation
                          JOINT RightHandIndex3
                          {
                            OFFSET 0 -3.4 0
                            CHANNELS 6 Xposition Yposition Zposition Zrotation Xrotation Yrotation
                            End Site
                            {
                              OFFSET 0 -2.6 0
                            }
                          }
                        }
                      }
                    }
                    JOINT RightHandMiddle
                    {
                      OFFSET 0.25 -2.2 0.4
                      CHANNELS 6 Xposition Yposition Zposition Zrotation Xrotation Yrotation
                      JOINT RightHandMiddle1
                      {
                        OFFSET 0 -8.3 1
                        CHANNELS 6 Xposition Yposition Zposition Zrotation Xrotation Yrotation
                        JOINT RightHandMiddle2
                        {
                          OFFSET 0 -4.65 0
                          CHANNELS 6 Xposition Yposition Zposition Zrotation Xrotation Yrotation
                          JOINT RightHandMiddle3
                          {
                            OFFSET 0 -3.3 0
                            CHANNELS 6 Xposition Yposition Zposition Zrotation Xrotation Yrotation
                            End Site
                            {
                              OFFSET 0 -2.7 0
                            }
                          }
                        }
                      }
                    }
                    JOINT RightHandRing
                    {
                      OFFSET 0.5 -2.15 -0.8
                      CHANNELS 6 Xposition Yposition Zposition Zrotation Xrotation Yrotation
                      JOINT RightHandRing1
                      {
                        OFFSET 0 -7.75 -0.2
                        CHANNELS 6 Xposition Yposition Zposition Zrotation Xrotation Yrotation
                        JOINT RightHandRing2
                        {
                          OFFSET 0 -3.8 0
                          CHANNELS 6 Xposition Yposition Zposition Zrotation Xrotation Yrotation
                          JOINT RightHandRing3
                          {
                            OFFSET 0 -3.4 0
                            CHANNELS 6 Xposition Yposition Zposition Zrotation Xrotation Yrotation
                            End Site
                            {
                              OFFSET 0 -2.6 0
                            }
                          }
                        }
                      }
                    }
                    JOINT RightHandPinky
                    {
                      OFFSET 0.75 -1.75 -1.85
                      CHANNELS 6 Xposition Yposition Zposition Zrotation Xrotation Yrotation
                      JOINT RightHandPinky1
                      {
                        OFFSET 0 -7.15 -1
                        CHANNELS 6 Xposition Yposition Zposition Zrotation Xrotation Yrotation
                        JOINT RightHandPinky2
                        {
                          OFFSET 0 -3 0
                          CHANNELS 6 Xposition Yposition Zposition Zrotation Xrotation Yrotation
                          JOINT RightHandPinky3
                          {
                            OFFSET 0 -2.35 0
                            CHANNELS 6 Xposition Yposition Zposition Zrotation Xrotation Yrotation
                            End Site
                            {
                              OFFSET 0 -2.1 0
                            }
                          }
                        }
                      }
                    }
                  }
                }
              }
            }
          }
        }
      }
    }
  }
  JOINT LeftUpLeg
  {
    OFFSET 8 0 0
    CHANNELS 6 Xposition Yposition Zposition Zrotation Xrotation Yrotation
    JOINT LeftLeg
    {
      OFFSET 0 -45 -1
      CHANNELS 6 Xposition Yposition Zposition Zrotation Xrotation Yrotation
      JOINT LeftFoot
      {
        OFFSET 0 -41 -2
        CHANNELS 6 Xposition Yposition Zposition Zrotation Xrotation Yrotation
        JOINT LeftToeBase
        {
          OFFSET 0 -7.5 12.5
          CHANNELS 6 Xposition Yposition Zposition Zrotation Xrotation Yrotation
          JOINT LeftFootToe
          {
            OFFSET 0 0 4
            CHANNELS 6 Xposition Yposition Zposition Zrotation Xrotation Yrotation
            End Site
            {
              OFFSET 0 0 0
            }
          }
        }
      }
    }
  }
  JOINT RightUpLeg
  {
    OFFSET -8 0 0
    CHANNELS 6 Xposition Yposition Zposition Zrotation Xrotation Yrotation
    JOINT RightLeg
    {
      OFFSET 0 -45 -1
      CHANNELS 6 Xposition Yposition Zposition Zrotation Xrotation Yrotation
      JOINT RightFoot
      {
        OFFSET 0 -41 -2
        CHANNELS 6 Xposition Yposition Zposition Zrotation Xrotation Yrotation
        JOINT RightToeBase
        {
          OFFSET 0 -7.5 12.5
          CHANNELS 6 Xposition Yposition Zposition Zrotation Xrotation Yrotation
          JOINT RightFootToe
          {
            OFFSET 0 0 4
            CHANNELS 6 Xposition Yposition Zposition Zrotation Xrotation Yrotation
            End Site
            {
              OFFSET 0 0 0
            }
          }
        }
      }
    }
  }
}
MOTION
Frames:	3
Frame Time:	0.0111111
-305.967 90.7295 1200.89 -20.6109 -11.2501 112.878 0 8 0 -4.05941 25.762 9.84145 1.13687e-13 8 0 -7.5131 8.99029 2.62721 -2.27374e-13 8 1.13687e-13 -3.7032 4.55006 1.16511 -1.13687e-13 8 0 -3.68302 4.52585 1.15807 1.13687e-13 17 0 1.25413 2.69432 4.24281 0 10.8 -1.13687e-13 2.61899 6.42631 9.84694 5 17 0 -19.5014 -11.6204 15.8811 6.45 0 0 -1.43883 -1.40626 3.30288 6.45 0 0 57.6833 23.6592 -13.8127 -1.13687e-13 -32.4 -2 151.981 -46.3307 73.1926 5.68434e-14 -25.65 2 -45.5357 -7.91689 44.1309 -0.5 -1.5 2.65 -18.6642 9.38706 126.806 0 -3.8 3.7 -0.0722839 50.9479 0.0118099 0 -3 2.7 -0.0420821 66.2966 0.0397739 -2.27374e-13 -1.9 1.6 -1.59028e-15 2.88238e-15 -0 0 -8.3 1.9 -70.1705 -15.4487 -9.15106 0 -4.5 1.13687e-13 6.36111e-15 -5.56597e-15 -2.38542e-15 -1.13687e-13 -3.4 0 1.27222e-14 -1.59028e-15 -1.59028e-15 -0.25 -2.2 0.4 -1.59028e-15 2.88238e-15 -0 2.27374e-13 -8.3 1 -77.4477 0.916754 4.97869 0 -4.65 2.84217e-13 -12.2804 -3.89649e-15 -5.35981e-15 0 -3.3 1.13687e-13 13.2657 0.00102451 -0.00186926 -0.5 -2.15 -0.8 -1.59028e-15 2.88238e-15 -0 2.27374e-13 -7.75 -0.2 -89.9936 -0.00275736 12.8869 0 -3.8 0 -1.77348 -0.0054744 0.00844246 -8.52651e-14 -3.4 0 -90.0002 -0.00584412 -0.000747681 -0.75 -1.75 -1.85 -1.59028e-15 2.88238e-15 -0 -2.27374e-13 -7.15 -1 -90.0002 -5.91039e-05 17.1887 2.84217e-14 -3 0 -90.0002 -2.19657e-14 -0.00219355 2.27374e-13 -2.35 1.7053e-13 -90.0002 1.40342e-13 -1.08437e-13 -5 17 0 -2.55553 -2.05256 9.93077 -6.45 0 1.13687e-13 -1.25477 0.307607 -3.56586 -6.45 0 0 -130.891 -48.5837 -32.1217 0 -32.4 -2 79.9927 -72.4982 77.6605 1.13687e-13 -25.65 2 11.4254 5.63199 5.22161 0.5 -1.5 2.65 18.6137 31.2497 1.41109 -4.54747e-13 -3.8 3.7 2.48195 3.69967 -0.662068 0 -3 2.7 0.248799 23.4681 -0.235953 1.13687e-13 -1.9 1.6 3.18055e-15 -2.38542e-15 -0 1.13687e-13 -8.3 1.9 4.04215 -16.217 0.426454 0 -4.5 0 -1.59028e-15 -2.96324e-05 -0 2.27374e-13 -3.4 0 -3.18055e-15 -2.8346e-05 6.36111e-15 0.25 -2.2 0.4 3.18055e-15 -2.38542e-15 -0 -2.27374e-13 -8.3 1 2.03261 -10.134 -0.0896372 1.13687e-13 -4.65 0 42.2849 -0.0216519 -0.00551872 1.13687e-13 -3.3 -1.13687e-13 29.5317 -0.0131146 0.00382042 0.5 -2.15 -0.8 3.18055e-15 -2.38542e-15 -0 -1.13687e-13 -7.75 -0.2 0.283737 -3.78629 -0.0549356 -4.54747e-13 -3.8 0 30.5905 -0.0328231 -0.0506385 0 -3.4 1.13687e-13 22.4324 -0.0298473 -0.0205553 0.75 -1.75 -1.85 3.18055e-15 -2.38542e-15 -0 -2.27374e-13 -7.15 -1 0.22349 -9.64088 -2.29256 -4.54747e-13 -3 1.13687e-13 47.8465 -0.129961 0.0528569 0 -2.35 0 34.6574 -0.102509 0.0836645 8 0 0 13.0777 -34.5689 -25.4694 2.27374e-13 -45 -1 0.023116 11.2366 -0.294391 2.27374e-13 -41 -2 -13.529 -5.54517 24.4298 0 -7.5 12.5 -4.95687e-17 -0.0022966 3.18055e-15 -1.13687e-13 2.66454e-15 4 10.2143 -0.961897 72.2645 -8 0 -1.13687e-13 -10.2921 -27.3318 -47.1964 -2.27374e-13 -45 -1 -0.281547 24.0815 1.74261 2.27374e-13 -41 -2 5.05404 -13.5122 0.818539 -2.27374e-13 -7.5 12.5 1.55301e-18 -2.36057e-16 3.18055e-15 -2.27374e-13 0 4 -4.81874 9.89905 53.8334 
-305.98 90.7262 1200.9 -20.6002 -11.3003 112.931 0 8 1.13687e-13 -4.1078 25.7771 9.91711 1.13687e-13 8 0 -7.49701 9.00061 2.62729 -2.27374e-13 8 0 -3.69498 4.55507 1.16512 0 8 1.13687e-13 -3.67485 4.53086 1.15808 2.27374e-13 17 0 1.25957 2.69788 4.2273 0 10.8 -5.68434e-14 2.6325 6.43478 9.81011 5 17 0 -19.5624 -11.619 15.906 6.45 1.13687e-13 0 -1.43883 -1.40626 3.30288 6.45 0 -1.13687e-13 57.6833 23.6592 -13.8127 -1.13687e-13 -32.4 -2 151.981 -46.3307 73.1926 0 -25.65 2 -45.5357 -7.91689 44.1309 -0.5 -1.5 2.65 -18.6485 9.47359 126.861 0 -3.8 3.7 -0.0723081 51.0216 0.0118286 0 -3 2.7 -0.0424685 66.5184 0.0401281 2.27374e-13 -1.9 1.6 0 4.96962e-16 -0 0 -8.3 1.9 -70.2531 -15.4302 -9.15024 0 -4.5 1.13687e-13 -1.76556e-31 -6.36111e-15 -1.59028e-15 0 -3.4 0 6.36111e-15 0 -7.95139e-16 -0.25 -2.2 0.4 0 4.96962e-16 -0 0 -8.3 1 -77.4337 0.882409 4.94783 -5.68434e-14 -4.65 2.27374e-13 -12.2804 -6.70898e-16 -8.1626e-15 0 -3.3 1.13687e-13 13.2752 0.00102451 -0.00186926 -0.5 -2.15 -0.8 0 4.96962e-16 -0 2.27374e-13 -7.75 -0.2 -89.9936 -0.00275736 12.8869 -2.84217e-14 -3.8 0 -1.77348 -0.0054744 0.00844246 -8.52651e-14 -3.4 -1.13687e-13 -90.0002 -0.00584412 -0.000747681 -0.75 -1.75 -1.85 0 4.96962e-16 -0 -2.27374e-13 -7.15 -1 -90.0002 -5.91039e-05 17.1887 0 -3 -5.68434e-14 -90.0002 -4.17448e-15 -0.00219355 0 -2.35 2.27374e-13 -90.0002 3.81667e-14 -7.95139e-16 -5 17 0 -2.5711 -2.06383 9.95315 -6.45 0 2.27374e-13 -1.25474 0.307605 -3.57066 -6.45 0 0 -130.829 -48.4465 -32.0771 0 -32.4 -2 80.3168 -72.3967 77.8439 2.27374e-13 -25.65 2 11.3648 5.5706 5.03658 0.5 -1.5 2.65 18.936 33.0227 1.54333 -2.27374e-13 -3.8 3.7 2.54414 1.91608 -0.671496 -2.27374e-13 -3 2.7 0.258367 22.9204 -0.248867 0 -1.9 1.6 -0 -3.97569e-15 -0 0 -8.3 1.9 3.86271 -15.8853 0.397037 -1.13687e-13 -4.5 0 -1.59028e-15 -2.96324e-05 -3.18055e-15 0 -3.4 0 3.14704e-21 -2.8346e-05 6.36111e-15 0.25 -2.2 0.4 -0 -3.97569e-15 -0 1.13687e-13 -8.3 1 2.52692 -9.94942 -0.212588 0 -4.65 -1.13687e-13 43.9911 -0.0272904 0.0216496 1.13687e-13 -3.3 0 30.6119 -0.00722497 0.0209802 0.5 -2.15 -0.8 -0 -3.97569e-15 -0 -3.41061e-13 -7.75 -0.2 0.195619 -3.04066 -0.0471834 -4.54747e-13 -3.8 -1.13687e-13 32.4832 -0.0440124 -0.0412102 0 -3.4 1.13687e-13 23.5734 -0.0338592 -0.0119897 0.75 -1.75 -1.85 -0 -3.97569e-15 -0 0 -7.15 -1 0.125866 -9.07983 -2.27844 0 -3 2.27374e-13 54.7475 -0.17487 -0.0755195 0 -2.35 -1.13687e-13 40.0638 -0.198112 0.046936 8 0 1.13687e-13 13.0669 -34.6233 -25.6662 2.27374e-13 -45 -1 0.0234246 11.2955 -0.294451 4.54747e-13 -41 -2 -13.5511 -5.58958 24.3399 1.13687e-13 -7.5 12.5 -4.94412e-17 -0.0022966 6.36111e-15 1.13687e-13 2.66454e-15 4 10.2292 -0.932722 72.4797 -8 5.68434e-14 0 -10.2607 -27.3429 -47.2174 -2.27374e-13 -45 -1 -0.281547 24.0815 1.74261 4.54747e-13 -41 -2 5.04858 -13.5123 0.795181 0 -7.5 12.5 -3.10601e-18 -2.35669e-16 9.54166e-15 0 -5.55112e-17 4 -4.81741 9.90192 53.8341 
-306 90.7225 1200.9 -20.5945 -11.3394 112.962 -2.27374e-13 8 0 -4.15674 25.7912 9.99192 0 8 0 -7.4934 9.00932 2.62735 -1.13687e-13 8 0 -3.69325 4.55955 1.16512 -2.27374e-13 8 0 -3.67313 4.53528 1.15808 0 17 0 1.26547 2.70586 4.21063 0 10.8 -1.13687e-13 2.64667 6.45355 9.77043 5 17 5.68434e-14 -19.6235 -11.6192 15.937 6.45 -1.13687e-13 0 -1.43883 -1.40626 3.30288 6.45 1.13687e-13 -1.13687e-13 57.6833 23.6592 -13.8127 1.13687e-13 -32.4 -2 151.981 -46.3307 73.1926 0 -25.65 2 -45.5357 -7.91689 44.1309 -0.5 -1.5 2.65 -18.6589 9.55828 126.877 0 -3.8 3.7 -0.0723101 51.0277 0.0118302 0 -3 2.7 -0.0430604 66.8506 0.0406715 0 -1.9 1.6 -1.59028e-15 -3.18055e-15 -0 2.27374e-13 -8.3 1.9 -70.3289 -15.4111 -9.14939 -1.13687e-13 -4.5 0 3.18055e-15 -6.36111e-15 -1.59028e-15 0 -3.4 0 1.59028e-14 7.95139e-16 -3.18055e-15 -0.25 -2.2 0.4 -1.59028e-15 -3.18055e-15 -0 -2.27374e-13 -8.3 1 -77.4237 0.850919 4.92011 0 -4.65 2.27374e-13 -12.2804 1.59028e-15 -2.22887e-14 0 -3.3 0 13.2866 0.00102451 -0.00186926 -0.5 -2.15 -0.8 -1.59028e-15 -3.18055e-15 -0 0 -7.75 -0.2 -89.9936 -0.00275736 12.8869 -2.84217e-14 -3.8 0 -1.77348 -0.0054744 0.00844246 -1.56319e-13 -3.4 0 -90.0002 -0.00584412 -0.000747681 -0.75 -1.75 -1.85 -1.59028e-15 -3.18055e-15 -0 0 -7.15 -1 -90.0002 -5.91039e-05 17.1887 -4.26326e-14 -3 0 -90.0002 4.58199e-14 -0.00219355 0 -2.35 2.27374e-13 -90.0002 -9.38264e-14 1.26228e-13 -5 17 -5.68434e-14 -2.59381 -2.07334 9.97931 -6.45 1.13687e-13 1.13687e-13 -1.25471 0.307604 -3.57594 -6.45 1.13687e-13 0 -130.759 -48.3055 -31.9998 0 -32.4 -2 80.5121 -72.2634 77.8121 1.13687e-13 -25.65 2 11.3305 5.50603 4.83371 0.5 -1.5 2.65 19.2207 34.8017 1.66493 -4.54747e-13 -3.8 3.7 2.5962 -0.177773 -0.686256 0 -3 2.7 0.269926 21.848 -0.272937 0 -1.9 1.6 3.18055e-15 -3.18055e-15 -0 -1.13687e-13 -8.3 1.9 3.68879 -15.5516 0.369257 -2.27374e-13 -4.5 -1.13687e-13 -1.59028e-15 -2.96324e-05 -0 2.27374e-13 -3.4 0 1.57352e-21 -2.8346e-05 3.18055e-15 0.25 -2.2 0.4 3.18055e-15 -3.18055e-15 -0 -1.13687e-13 -8.3 1 3.30371 -9.93762 -0.377202 0 -4.65 -2.27374e-13 45.6532 -0.0326446 0.0553359 1.13687e-13 -3.3 -1.13687e-13 31.6855 0.00177863 0.0420235 0.5 -2.15 -0.8 3.18055e-15 -3.18055e-15 -0 -1.13687e-13 -7.75 -0.2 0.13192 -2.33248 -0.0396875 -1.13687e-13 -3.8 0 34.5969 -0.0629723 -0.0278856 -1.13687e-13 -3.4 2.27374e-13 24.8494 -0.0409853 0.00096565 0.75 -1.75 -1.85 3.18055e-15 -3.18055e-15 -0 0 -7.15 -1 0.0302251 -8.45509 -2.26078 0 -3 1.13687e-13 61.2889 -0.220218 -0.173565 -1.13687e-13 -2.35 0 45.5669 -0.284537 0.0407959 8 0 -1.13687e-13 13.0407 -34.6803 -25.8904 2.27374e-13 -45 -1 0.0238293 11.3727 -0.29453 0 -41 -2 -13.5641 -5.65296 24.407 -1.13687e-13 -7.5 12.5 5.12978e-17 -0.00721311 1.27222e-14 -1.13687e-13 0 4 10.2409 -0.9164 72.5772 -8 0 -1.13687e-13 -10.2388 -27.3629 -47.2184 0 -45 -1 -0.281761 24.0879 1.7427 2.27374e-13 -41 -2 5.04359 -13.5124 0.773845 0 -7.5 12.5 1.55301e-18 -2.37222e-16 6.36111e-15 2.27374e-13 -5.55112e-17 4 -4.81616 9.90937 53.8359 
